<svg width="127" height="34" viewBox="0 0 127 34" fill="none" xmlns="http://www.w3.org/2000/svg">
<path fill-rule="evenodd" clip-rule="evenodd" d="M3.04483 7.86575V14.209H9.38811H15.7314V7.86575V1.52246H9.38811H3.04483V7.86575Z" fill="#606D5C"/>
<path d="M18.551 17.0769V0L23.3433 4.76923V22.6154H5.41073V34L3.05176e-05 29.3846V17.0769H18.551Z" fill="#365B49"/>
<path d="M58.3405 7.56125C58.3904 4.40338 58.013 2.20379 57.2875 0.6875H49.8014C50.3008 2.75985 50.5504 5.41489 50.5504 7.63526C50.5504 9.8063 50.3008 11.928 49.8014 14.0003C49.352 16.0727 48.2066 18.9291 47.2079 20.6067C47.1372 20.728 47.0674 20.8422 46.998 20.9501L53.1167 20.8055C54.4382 19.4663 55.5053 17.9627 56.3181 16.2947C57.6664 13.5809 58.3405 10.6698 58.3405 7.56125Z" fill="#365B49"/>
<path d="M33.4926 0.6875V34.0006H40.983V0.6875H33.4926Z" fill="#365B49"/>
<path d="M92.675 17.849L86.819 0.6875H79.52L88.1808 25.1022H90.1283L92.675 17.849Z" fill="#365B49"/>
<path d="M76.3776 17.849L70.6396 0.6875H63.3406L71.8834 25.1022H73.9058L76.3776 17.849Z" fill="#365B49"/>
<path d="M126.848 7.38157C126.898 4.2237 126.52 2.0241 125.795 0.507812H118.309C118.808 2.58016 119.058 5.2352 119.058 7.45558C119.058 9.62661 118.808 11.7483 118.309 13.8207C117.859 15.893 116.714 18.7494 115.715 20.427C115.645 20.5483 115.575 20.6625 115.505 20.7704L121.624 20.6258C122.946 19.2866 124.013 17.783 124.826 16.115C126.174 13.4013 126.848 10.4901 126.848 7.38157Z" fill="#365B49"/>
<path d="M102 0.507812V34.0004H109.49V0.507812H102Z" fill="#365B49"/>
</svg>
