<svg width="1050" height="809" viewBox="0 0 1050 809" fill="none" xmlns="http://www.w3.org/2000/svg">
<path fill-rule="evenodd" clip-rule="evenodd" d="M482.354 12.1126C486.661 9.5603 489.712 6.08462 489.712 3.73299C489.712 -1.34425 492.603 -1.26818 504.429 4.11965C517.348 10.0061 523.35 16.1144 523.35 23.3785C523.35 27.8578 522.004 29.9157 518.094 31.4095C509.026 34.8746 512.539 41.9739 523.323 41.9739C526.577 41.9739 526.985 43.2416 526.033 50.3874C525.16 56.9161 525.675 59.0966 528.335 60.1214C533.368 62.0631 532.56 65.2388 525.055 73.0226L518.35 79.9739L522.372 87.912C524.584 92.2793 526.718 96.5156 527.113 97.3249C527.508 98.1362 525.204 98.6116 521.994 98.3813C513.99 97.8108 512.535 104.547 520.043 107.414C522.762 108.453 524.312 109.01 524.872 110.084C525.623 111.523 524.597 113.892 522.227 119.595C520.352 124.099 519.54 129.831 520.291 133.261C521.578 139.143 521.538 139.166 510.376 139.24C495.981 139.337 490.816 142.373 483.651 154.943C478.38 164.193 478.029 166.05 479.955 174.51C481.595 181.711 481.462 184.244 479.374 185.542C476.282 187.462 478.702 193.526 484.479 198.346C487.424 200.803 488.617 200.346 493.248 195.003C496.198 191.601 499.538 186.205 500.674 183.008C503.312 175.579 508.118 175.56 510.919 182.966C513.633 190.135 516.334 191.914 524.576 191.956C533.357 191.999 547.241 205.542 545.53 212.396C544.222 217.623 547.784 221.099 551.066 217.801C554.314 214.537 568.295 230.966 566.884 236.386C566.154 239.187 567.132 241.368 569.743 242.773C576.021 246.149 578.613 252.714 576.3 259.382C575.125 262.771 575.049 266.581 576.12 268.504C579.118 273.887 572.701 277.158 558.464 277.502C549.85 277.711 542.078 276.45 535.565 273.786C527.151 270.344 524.586 270.124 518.079 272.281C511.717 274.392 510.042 274.291 507.967 271.667C504.893 267.781 490.282 264.984 486.924 267.639C483.287 270.517 462.726 272.685 432.689 273.359C404.612 273.989 400.323 275.168 389.813 285.145C385.337 289.396 381.624 291.031 377.199 290.701C371.577 290.285 370.967 290.832 371.316 296.001C371.865 304.099 361.536 311.708 355.307 307.797C351.956 305.694 350.518 305.677 348.485 307.721C344.835 311.389 336.926 310.93 335.41 306.964C333.537 302.054 328.88 304.572 328.88 310.495C328.88 314.955 327.436 315.91 317.317 318.141C288.251 324.554 269.078 333.147 266.031 341.121C264.522 345.074 258.639 344.958 257.109 340.946C255.763 337.423 250.041 336.568 250.041 339.889C250.041 341.051 248.149 342.002 245.836 342.002C243.523 342.002 241.631 341.051 241.631 339.889C241.631 338.727 236.663 337.747 230.594 337.709C224.24 337.671 217.824 336.325 215.476 334.539C213.016 332.669 206.719 331.438 199.626 331.438C192.198 331.438 185.174 329.997 180.58 327.527C167.796 320.658 139.8 303.108 132.062 297.112C127.945 293.921 121.554 290.251 117.862 288.958C112.692 287.148 111.671 285.975 113.422 283.856C116.203 280.488 113.075 278.058 108.319 279.892C106.106 280.746 104.977 280.017 104.977 277.733C104.977 275.837 102.847 273.308 100.246 272.114C97.6457 270.921 92.703 268.415 89.2677 266.545C83.0741 263.175 83.0594 263.126 87.6909 261.049C90.937 259.594 92.3624 257.117 92.3624 252.938C92.3624 249.629 91.4457 246.923 90.3252 246.923C89.2067 246.923 88.8262 245.516 89.4821 243.798C90.4534 241.254 88.843 240.81 80.8372 241.412C70.1697 242.215 66.5431 238.997 71.4353 233.073C75.2953 228.397 70.752 224.013 66.0827 227.907C63.6986 229.895 62.105 230.037 60.4819 228.405C59.2331 227.15 56.9079 226.626 55.3143 227.241C50.7164 229.016 51.9547 224.078 56.7565 221.496C60.1687 219.66 60.8162 217.875 59.7818 213.148C59.0586 209.84 59.4265 205.39 60.5976 203.258C61.7665 201.126 64.2557 195.909 66.1247 191.663C68.3427 186.623 73.4893 181.297 80.9423 176.323C87.2242 172.131 92.3666 168 92.3687 167.141C92.3729 166.281 97.5763 162.758 103.932 159.312C114.82 153.409 117.915 149.376 113.607 146.699C112.57 146.054 111.183 146.95 110.519 148.687C109.776 150.631 106.568 151.843 102.172 151.843C98.0914 151.843 92.6168 153.753 89.3938 156.302C81.676 162.401 64.7876 170.84 60.2738 170.851C57.7825 170.857 54.8328 174.84 51.2693 183.008C43.4947 200.824 34.7972 206.083 33.0375 194.029C32.3857 189.573 33.5736 185.613 36.9332 181.037C39.5906 177.415 41.2662 173.642 40.6565 172.651C39.1911 170.268 32.1187 174.172 29.4992 178.808C27.6575 182.07 27.0793 182.127 24.3105 179.311C19.7652 174.686 22.0799 156.069 27.1992 156.069C29.5707 156.069 31.3009 153.889 32.0956 149.9C32.8251 146.238 35.0663 143.176 37.6144 142.363C39.9753 141.611 41.9053 139.352 41.9053 137.345C41.9053 134.009 44.6636 133.77 74.0339 134.562C102.313 135.325 106.514 135.002 109.112 131.853C111.137 129.403 112.438 119.916 113.252 101.671C114.057 83.6017 115.255 74.7889 116.988 74.2142C118.419 73.7388 120.112 75.9848 120.843 79.3274C123.059 89.4565 123.665 90.57 126.957 90.57C128.713 90.57 131.607 87.0605 133.39 82.7714L136.634 74.9728L142.826 81.7847L149.017 88.5987L157.511 84.2441C164.312 80.7578 166.885 80.3627 170.413 82.2601C173.001 83.6525 178.415 84.0687 183.524 83.2679C188.309 82.5178 204.524 81.1381 219.556 80.2021L246.887 78.4992L253.018 84.7934C263.334 95.3916 273.909 98.9222 295.484 98.975C317.083 99.0278 323.391 96.055 328.68 83.3292C331.157 77.3751 333.28 75.9933 344.921 72.7711C352.286 70.7301 368.937 65.4036 381.921 60.9306C394.905 56.4577 406.037 53.6243 406.657 54.6342C407.28 55.6463 406.826 57.0683 405.65 57.7993C404.475 58.5283 403.514 64.3239 403.514 70.6752C403.514 81.3114 403.971 82.4037 409.296 84.5061C412.475 85.7611 420.827 87.2803 427.856 87.8824C437.899 88.7424 442.734 88.043 450.456 84.6096C460.07 80.3352 462.74 76.9568 457.81 75.3045C453.528 73.8699 468.453 64.8838 476.137 64.2711C480.178 63.9478 485.196 62.1286 487.29 60.2249C489.382 58.3212 492.268 56.764 493.702 56.764C495.205 56.764 496.027 54.7483 495.641 52.0101C495.086 48.0843 493.454 47.1441 486.289 46.618C478.073 46.0158 477.545 45.5679 476.326 38.1665C473.5 20.9825 474.47 16.7884 482.354 12.1126ZM811.376 62.7139C811.376 59.6734 814.363 55.2491 819.26 51.0339C823.595 47.3005 827.347 44.2093 827.596 44.1671C827.844 44.1227 829.059 45.9884 830.297 48.3125C831.91 51.3424 831.88 53.7912 830.192 56.9626C828.258 60.5925 828.624 62.2321 832.219 66.0797C837.685 71.926 837.716 74.7488 832.399 81.5417C830.087 84.4976 828.199 89.4016 828.203 92.4399C828.212 99.4441 834.809 110.42 841.759 114.997C844.984 117.12 847.116 120.499 847.116 123.489C847.116 135.532 862.695 134.188 870.4 121.481L874.077 115.417L877.416 121.904C883.731 134.178 881.168 142.392 868.693 149.866C864.341 152.473 859.491 156.122 857.912 157.977C855.786 160.479 854.788 160.667 854.058 158.71C852.038 153.297 846.937 156.403 839.592 167.525L832.023 178.979L840.62 186.786C845.35 191.079 849.219 195.303 849.219 196.171C849.219 197.04 844.511 204.773 838.757 213.358C832.763 222.297 828.273 231.391 828.245 234.649C828.218 237.776 827.249 240.922 826.092 241.641C824.936 242.359 823.99 246.675 823.99 251.233V259.52L814.807 258.254C808.691 257.411 805.1 257.84 804.055 259.539C802.975 261.294 801.728 260.551 800.044 257.145C798.549 254.123 795.131 251.795 791.243 251.148C787.745 250.567 782.319 248.19 779.184 245.866L773.48 241.641L778.764 235.923C784.783 229.405 785.405 225.333 780.946 221.615C778.31 219.415 778.267 218.198 780.664 213.432C785.596 203.626 788.796 186.397 786.488 182.064C785.334 179.896 783.732 171.404 782.926 163.194C781.692 150.601 782.142 146.72 785.796 138.414C788.18 132.999 792.955 125.959 796.407 122.774C802.977 116.71 817.683 93.6527 817.683 89.4185C817.683 88.0663 815.313 84.392 812.416 81.2501C808.273 76.756 807.6 74.696 809.263 71.5732C810.425 69.3906 811.376 65.4036 811.376 62.7139ZM665.305 125.58C671.437 119.417 671.931 114.936 666.837 111.644C663.402 109.423 663.412 109.347 667.01 110.482C669.127 111.152 672.608 111.699 674.746 111.699C677.177 111.699 678.886 113.48 679.304 116.453C679.75 119.601 683.282 122.998 689.77 126.514C695.156 129.432 701.306 133.387 703.435 135.302C705.565 137.214 709.673 139.105 712.564 139.502C716.022 139.975 718.036 141.754 718.455 144.702C719.132 149.456 714.46 151.759 704.03 151.814C692.566 151.875 690.615 155.771 691.292 177.261L691.908 196.82L683.316 195.662C678.587 195.024 674.721 195.299 674.721 196.273C674.721 197.245 672.797 198.656 670.445 199.406C668.094 200.156 664.443 202.633 662.33 204.91C658.531 209.011 658.455 208.999 654.995 203.689C650.331 196.537 647.172 196.909 635.32 206.005C629.816 210.228 622.294 215.132 618.6 216.905C614.906 218.676 610.771 222.827 609.409 226.13C606.045 234.294 598.626 234.499 599.481 226.405C600.282 218.832 593.401 215.458 575.676 214.727C568.288 214.422 561.603 213.277 560.818 212.181C559.944 210.959 557.301 211.145 553.986 212.662C549.007 214.942 548.578 214.742 548.578 210.144C548.578 198.439 536.107 186.127 526.741 188.588C521.588 189.943 514.94 186.459 514.94 182.406C514.94 180.703 513.118 177.479 510.891 175.241C505.883 170.208 498.121 171.671 498.121 177.646C498.121 183.845 491.427 194.101 487.38 194.101C482.696 194.101 480.81 188.692 484.439 185.664C486.842 183.659 486.874 181.749 484.628 174.255C482.217 166.202 482.343 164.747 485.822 160.428C487.963 157.772 489.712 154.303 489.712 152.714C489.712 147.379 499.915 142.788 511.766 142.788C519.273 142.788 523.495 141.837 524.201 139.982C525.089 137.66 526.691 137.679 533.494 140.092C538.016 141.695 543.657 144.224 546.028 145.714C551.623 149.226 556.988 145.215 556.988 137.524C556.988 132.445 557.188 132.354 560.888 135.72C563.152 137.778 566.285 138.691 568.353 137.894C570.584 137.034 573.78 138.274 576.889 141.211C580.16 144.3 583.274 145.452 586.005 144.581C589.299 143.529 591.276 145.192 595.651 152.693C598.676 157.882 602.994 162.714 605.246 163.432C609.941 164.93 625.565 161.195 627.453 158.125C628.147 156.995 631.444 156.069 634.776 156.069C642.372 156.069 644.609 152.701 640.238 147.846C638.39 145.794 636.878 142.452 636.878 140.417C636.878 137.412 638.054 136.977 643.135 138.099C651.523 139.95 654.349 138.002 651.374 132.413C649.228 128.384 649.486 128.141 654.566 129.424C658.804 130.493 661.308 129.597 665.305 125.58ZM853.358 163.405C858.202 167.81 859.51 167.493 861.833 161.351C864.377 154.628 871.275 153.99 869.544 160.637C868.102 166.183 871.38 172.972 875.502 172.972C878.938 172.972 893.522 186.904 891.846 188.586C891.243 189.195 891.323 191.202 892.027 193.044C893.068 195.772 894.144 195.945 897.809 193.974C901.082 192.214 903.672 192.176 907.299 193.839C911.752 195.878 912.29 197.503 912.29 208.929C912.29 222.107 907.656 234.805 900.741 240.571C898.847 242.152 895.883 246.192 894.155 249.549C891.434 254.835 890.177 255.469 884.768 254.275C879.388 253.088 877.325 254.096 869.923 261.535C862.493 269.004 861.707 270.635 864.129 273.568C866.496 276.433 866.372 277.371 863.33 279.605C861.351 281.06 859.73 283.218 859.73 284.401C859.73 288.286 853.709 291.669 849.296 290.262C846.916 289.501 843.576 286.176 841.873 282.867C838.452 276.22 827.356 272.275 823.361 276.29C820.643 279.021 812.103 279.395 810.539 276.849C809.94 275.88 810.209 272.313 811.136 268.926C812.553 263.739 813.749 262.873 818.726 263.428C825.653 264.202 828.119 261.132 828.163 251.677C828.18 247.901 829.141 244.81 830.297 244.81C831.453 244.81 832.399 241.943 832.399 238.439C832.399 231.516 842.554 211.783 849.252 205.69C854.8 200.644 854.538 193.207 848.674 189.347C846.063 187.627 842.638 183.801 841.063 180.845C838.454 175.945 838.715 174.793 844.005 167.823C849.292 160.855 850.122 160.462 853.358 163.405ZM4.58811 174.056C-0.596359 171.77 -1.29855 168.527 2.03372 162.268C3.4339 159.64 6.43189 158.182 10.4432 158.182C17.6607 158.182 18.0475 159.868 12.9976 169.283C9.79149 175.258 8.70877 175.873 4.58811 174.056ZM22.1072 196.214C18.5752 196.214 16.6768 195.054 16.6768 192.896C16.6768 190.695 18.2094 189.807 21.2431 190.255C27.9729 191.253 28.694 196.214 22.1072 196.214ZM739.502 230.092C742.754 226.823 747.032 221.665 749.011 218.631C753.289 212.069 754.099 211.98 760.919 217.342C763.809 219.616 767.753 221.496 769.681 221.522C781.148 221.674 783.366 229.8 773.533 235.638C770.064 237.698 767.226 240.058 767.226 240.886C767.226 244.415 783.336 255.374 788.523 255.374C792.879 255.374 794.641 256.8 796.344 261.713C798.73 268.588 801.808 269.909 803.727 264.882C806.41 257.857 808.729 262.095 806.668 270.255C804.865 277.401 805.075 279.214 807.959 281.348C810.997 283.596 810.144 284.988 800.763 293.095C789.942 302.447 784.139 303.655 773.161 298.842C770.348 297.611 769.866 298.185 770.777 301.686C772.827 309.567 766.585 315.629 753.239 318.722C737.151 322.449 733.588 324.387 733.588 329.399C733.588 332.141 732.16 333.551 729.383 333.551C725.578 333.551 725.178 334.96 725.178 348.341C725.178 360.08 724.526 363.131 722.025 363.131C716.712 363.131 710.462 371.183 710.462 378.029C710.462 383.4 709.234 384.991 703.103 387.564C694.635 391.12 693.882 395.124 699.95 404.332C705.853 413.288 705.216 416.529 696.641 421.171C689.692 424.932 689.228 425.786 690.481 432.499C691.599 438.491 691.271 439.543 688.601 438.514C683.843 436.678 682.374 440.709 685.254 447.699C687.428 452.974 687.125 455.199 683.086 463.585C676.969 476.288 670.211 479.66 663.528 473.349C660.862 470.832 657.143 468.774 655.264 468.774C649.005 468.774 649.465 465.083 655.884 463.792C665.778 461.804 666.137 457.914 657.959 441.313C655.993 437.324 636.403 431.047 625.315 430.855C618.71 430.741 616.454 429.693 614.795 425.972C610.435 416.181 616.54 406.162 623.387 411.873C627.603 415.388 629.877 412.781 631.191 402.925C632.108 396.06 631.572 393.423 628.852 391.424C623.15 387.234 627.191 386.055 634.572 389.755C638.304 391.627 642.227 395.458 643.291 398.27C644.354 401.082 646.717 403.96 648.544 404.664C653.903 406.73 661.449 401.976 663.051 395.521C663.869 392.231 665.929 387.989 667.63 386.091C670.397 383.007 670.035 382.111 664.216 377.64C660.635 374.889 654.677 370.034 650.973 366.847C644.357 361.162 644.331 361.066 649.493 361.565C653.727 361.975 654.87 361.026 655.373 356.682C655.764 353.323 654.376 349.813 651.694 347.375C649.326 345.222 647.39 341.784 647.39 339.735C647.39 333.745 645.063 329.325 641.909 329.325C638.234 329.325 637.917 314.968 641.422 307.239C645.397 298.47 640.955 291.293 631.553 291.293H624.033L624.674 281.274C625.221 272.727 626.165 270.847 631.097 268.48C638.617 264.874 638.422 261.318 630.508 257.798C625.174 255.425 623.574 255.427 620.692 257.81C617.587 260.375 617.385 259.955 618.653 253.525C619.427 249.604 620.059 244.715 620.059 242.661C620.059 240.457 622.181 238.395 625.24 237.622C629.078 236.654 631.006 234.131 632.68 227.886C635.22 218.403 636.796 217.566 640.595 223.681C642.511 226.764 645.498 227.907 651.641 227.907C656.273 227.907 661.848 229.029 664.031 230.398C667.207 232.392 669.072 232.185 673.355 229.365C684.234 222.2 682.708 236.071 671.404 247.083C665.374 252.955 664.209 255.585 664.209 263.323C664.209 268.4 663.198 274.456 661.962 276.778C658.979 282.379 662.597 286.79 669.139 285.533C672.741 284.842 675.541 286.381 679.679 291.323C685.771 298.599 691.54 298.618 691.54 291.359C691.54 285.924 694.044 285.901 698.898 291.293C700.99 293.617 704.855 295.519 707.48 295.519C712.268 295.519 720.973 286.676 720.973 281.815C720.973 279.848 722.693 279.788 728.332 281.561C732.379 282.833 735.69 284.593 735.69 285.472C735.69 286.349 739.725 287.067 744.657 287.067C749.608 287.067 757.139 288.96 761.476 291.297C765.794 293.624 769.328 294.56 769.328 293.378C769.328 289.696 755.997 282.858 748.8 282.85C745.027 282.846 740.296 282.003 738.289 280.976C725.155 274.259 722.706 273.589 719.26 275.77C717.311 277.004 715.379 279.812 714.965 282.011C713.121 291.825 705.454 294.188 699.216 286.867C694.845 281.739 696.178 278.819 701.039 282.873C705.054 286.222 707.045 284.323 710.314 274.031C711.67 269.765 714.094 265.18 715.701 263.84C717.307 262.501 718.104 260.048 717.471 258.389C716.807 256.65 717.582 255.374 719.304 255.374C723.461 255.374 733.588 244.315 733.588 239.777C733.588 237.719 736.249 233.358 739.502 230.092ZM602.761 236.358C604.527 236.358 610.508 231.604 616.05 225.794C621.594 219.984 627.603 215.23 629.402 215.23C633.065 215.23 633.653 217.588 630.75 220.617C629.69 221.722 628.509 224.995 628.122 227.894C627.596 231.822 625.862 233.434 621.3 234.233C615.297 235.283 615.169 235.589 614.4 250.62C613.777 262.767 614.229 265.939 616.58 265.939C618.211 265.939 620.642 264.61 621.981 262.987C623.36 261.318 626.333 260.54 628.828 261.195C633.071 262.311 633.035 262.461 627.87 265.18C617.52 270.631 616.275 285.058 625.179 296.36C627.813 299.704 628.881 299.918 631.608 297.644C636.925 293.209 637.719 296.744 634.847 312.046C632.768 323.115 632.707 327.552 634.58 331.072C635.926 333.597 637.925 335.663 639.027 335.663C640.126 335.663 642.361 338.875 643.995 342.801C645.626 346.726 648.004 350.585 649.278 351.377C653.241 353.838 651.948 358.603 647.628 357.466C645.446 356.894 642.912 357.642 641.998 359.129C640.888 360.933 644.239 365.398 652.074 372.556C662.836 382.383 663.568 383.617 660.858 387.342C659.233 389.578 657.902 393.125 657.902 395.227C657.902 397.33 657.507 399.05 657.023 399.05C656.54 399.05 654.711 399.601 652.959 400.277C650.853 401.091 648.671 399.356 646.505 395.145C644.703 391.646 641.091 388.113 638.478 387.294C635.863 386.474 633.111 384.843 632.36 383.668C630.519 380.784 624.489 383.326 622.824 387.687C622.023 389.783 622.86 392.223 624.886 393.715C627.277 395.47 627.851 397.748 626.806 401.332C625.523 405.731 623.848 406.533 614.803 407.083C608.486 407.465 603.312 409.005 601.838 410.943C599.649 413.819 598.8 413.783 593.969 410.601C587.67 406.453 581.043 407.533 573.742 413.897C570.456 416.762 567.05 417.88 563.976 417.104C560.617 416.257 558.609 417.136 556.998 420.159C555.754 422.494 553.431 424.404 551.833 424.404C550.235 424.404 547.082 426.952 544.826 430.067L540.722 435.727L538.262 431.11C535.93 426.732 535.479 426.661 529.558 429.737C524.691 432.268 522.332 432.456 518.87 430.595C515.218 428.63 513.675 428.964 510.187 432.467C504.902 437.779 506.712 443.42 513.7 443.42C516.557 443.42 519.572 444.519 520.398 445.862C521.481 447.62 519.938 447.91 514.9 446.898C509.331 445.778 506.829 446.469 502.673 450.266C498.359 454.208 497.686 454.377 498.813 451.233C500.339 446.967 496.5 439.965 486.129 428.095C482.318 423.734 479.2 418.744 479.2 417.003C479.2 415.264 478.254 413.84 477.098 413.84C473.172 413.84 474.974 420.652 480.777 427.745C495.355 445.567 496.538 447.639 493.944 450.781C491.261 454.031 492.699 458.21 496.503 458.21C497.789 458.21 500.619 456.594 502.793 454.616C505.158 452.465 509.539 451.212 513.7 451.493C522.608 452.095 527.056 447.447 522.221 442.587C520.365 440.722 517.493 439.194 515.842 439.194C514.19 439.194 512.838 438.402 512.838 437.434C512.838 433.923 515.582 433.052 519.688 435.26C522.665 436.862 525.32 436.857 528.831 435.249C532.985 433.348 534.146 433.669 536.052 437.246C537.478 439.923 539.658 441.085 541.91 440.365C544.687 439.479 546.323 441.552 549.142 449.528C554.089 463.526 553.759 467.044 546.886 473.662C540.482 479.827 536.118 480.761 532.18 476.803C530.218 474.832 529.657 475.041 529.657 477.752C529.657 479.668 532.836 483.672 536.719 486.649C542.093 490.77 543.554 493.263 542.828 497.074C542.305 499.829 542.91 502.728 544.176 503.514C545.442 504.3 546.476 506.679 546.476 508.801C546.476 510.922 548.719 514.136 551.461 515.94C560.224 521.71 568.984 530.965 570.107 535.636C570.906 538.962 569.865 540.775 566.194 542.457C563.291 543.786 561.193 546.568 561.193 549.085C561.193 551.47 559.82 553.951 558.14 554.599C554.659 555.941 549.756 569.092 551.612 572.109C552.289 573.21 556.376 575.255 560.697 576.652C571.272 580.074 573.807 582.413 573.807 588.735C573.807 592.266 570.95 596.734 565.397 601.886C553.126 613.27 553.612 620.582 567.292 630.46C575.146 636.131 577.335 638.895 576.504 642.089C575.903 644.392 576.487 647.579 577.799 649.17C581.907 654.143 578.075 658.525 567.159 661.338C559.225 663.383 555.893 665.496 553.605 669.941C551.938 673.184 548.942 675.832 546.947 675.826C544.954 675.821 536.34 678.37 527.805 681.492C512.769 686.992 512.199 687.045 509.409 683.21C505.932 678.431 505.734 672.827 508.839 667C512.289 660.52 506.771 655.411 500.163 658.967C495.508 661.469 495.435 661.342 496.757 653.026C498.058 644.851 497.701 644.156 487.45 634.893C477.297 625.719 472.861 623.908 457.125 622.516C452.395 622.097 450.65 620.768 450.145 617.204C449.664 613.785 450.549 612.431 453.299 612.382C458.796 612.287 469.327 602.38 467.902 598.647C467.25 596.941 464.797 595.547 462.446 595.547C459.915 595.547 458.176 594.157 458.176 592.13C458.176 589.777 459.459 589.052 462.303 589.8C468.158 591.338 471.343 586.721 468.894 580.245C466.748 574.57 462.776 572.305 454.974 572.305C447.456 572.305 446.868 568.773 453.974 566.281C457.442 565.067 460.279 563.026 460.279 561.745C460.279 557.247 454.058 547.399 447.954 542.239C444.563 539.37 441.454 535.294 441.046 533.183C440.035 527.931 435.05 526.585 435.05 531.563C435.05 536.135 430.442 546.911 428.474 546.934C427.748 546.942 426.075 545.643 424.757 544.046C423.098 542.038 419.446 541.47 412.935 542.207C405.385 543.063 403.514 542.626 403.514 540.012C403.514 537.352 401.118 536.875 390.494 537.424C378.298 538.051 374.596 539.881 371.529 546.792C371.199 547.536 367.494 550.154 363.298 552.609C356.575 556.541 355.782 556.64 356.612 553.448C358.063 547.87 351.97 544.12 343.66 545.474C336.587 546.628 336.432 546.503 337.62 540.534C338.629 535.469 337.947 534.003 333.682 532.049C330.844 530.751 326.895 526.917 324.904 523.53C321.681 518.049 321.65 517.371 324.602 517.371C326.426 517.371 329.044 514.755 330.419 511.56C333.619 504.119 340.443 494.936 340.443 498.069C340.443 499.388 342.335 500.468 344.648 500.468C347.606 500.468 348.855 499.058 348.857 495.714C348.861 492.439 351.79 488.988 358.271 484.621C363.447 481.135 367.702 477.577 367.728 476.717C367.753 475.855 372.269 475.295 377.76 475.47C383.254 475.646 389.811 475.069 392.334 474.186C396.209 472.831 396.753 473.235 395.83 476.778C394.262 482.806 399.026 484.788 403.725 480.066C406.38 477.399 407.934 472.375 408.367 465.071C408.726 459.03 409.672 453.431 410.471 452.628C411.27 451.825 411.888 448.711 411.844 445.708C411.787 441.757 409.407 438.611 403.226 434.311C394.842 428.478 394.756 428.294 398.546 424.083C402.223 420.001 402.23 419.667 398.706 417.077C395.241 414.531 395.29 414.283 399.482 413.183C405.526 411.594 403.508 406.607 396.484 405.773C389.622 404.957 391.186 401.163 398.382 401.163C401.206 401.163 405.406 399.261 407.719 396.937C412.773 391.857 413.297 384.26 408.596 384.26C404.944 384.26 405.501 379.721 409.306 378.445C410.652 377.995 412.315 381.145 413.139 385.709C415.071 396.404 421.5 408.961 426.39 411.592C429.586 413.312 431.764 412.314 437.901 406.322L445.472 398.933L461.405 405.152C473.536 409.884 477.184 410.63 476.692 408.272C476.337 406.569 469.424 402.853 461.33 400.009C445.619 394.494 439.255 393.584 439.255 396.854C439.255 399.633 430.629 407.501 427.58 407.501C425.102 407.501 419.686 395.065 416.999 383.203C416.211 379.717 414.142 375.219 412.403 373.207C409.945 370.363 409.792 368.882 411.716 366.554C415.79 361.618 400.657 334.419 389.403 326.445C384.444 322.933 380.388 319.229 380.388 318.213C380.388 317.197 382.634 313.339 385.375 309.639C388.119 305.939 391.722 298.703 393.385 293.556C395.046 288.411 397.769 283.518 399.436 282.685C406.887 278.96 433.269 276.524 442.059 278.749C449.022 280.509 452.933 280.34 459.757 277.976C464.576 276.309 470.799 275.381 473.589 275.918C476.379 276.454 481.706 275.309 485.427 273.376C489.321 271.352 493.675 270.513 495.683 271.4C497.602 272.25 500.306 272.763 501.691 272.543C503.077 272.324 505.19 273.987 506.39 276.239C508.171 279.583 510.113 280.126 516.973 279.203C526.739 277.887 530.391 282.406 524.416 288.411C521.945 290.894 521.155 294.283 521.811 299.559C522.85 307.894 516.704 327.337 511.717 331.495C509.287 333.523 507.54 333.316 503.247 330.489C493.004 323.745 489.331 332.338 494.184 351.698C496.252 359.955 496.067 361.688 492.725 365.4C488.476 370.12 482.959 384.517 484.723 386.288C486.226 387.799 491.814 379.989 491.814 376.374C491.814 374.807 493.893 370.699 496.433 367.247C500.52 361.69 500.762 360.164 498.536 353.976C495.788 346.34 495.197 335.082 497.426 332.841C498.199 332.065 500.493 332.94 502.524 334.787C508.564 340.28 513.492 337.508 519.749 325.099C524.075 316.517 525.488 310.869 525.156 303.495C524.828 296.22 525.78 292.318 528.665 289.115C531.942 285.476 532.184 284.01 530.071 280.61C527.122 275.863 528.118 275.508 534.526 279.021C540.055 282.053 573.269 283.313 574.965 280.555C575.623 279.484 579.891 279.205 584.445 279.938C591.265 281.033 592.728 280.655 592.728 277.796C592.728 275.884 589.36 272.708 585.242 270.735C579.172 267.825 578.033 266.334 579.214 262.845C581.905 254.895 580.743 246.811 576.208 241.96C573.731 239.31 571.705 235.579 571.705 233.667C571.705 231.754 569.175 227.835 566.085 224.955L560.467 219.719L566.116 218.293C569.222 217.511 577.19 218.164 583.823 219.747C593.542 222.067 595.756 223.373 595.228 226.479C594.433 231.171 598.388 236.358 602.761 236.358ZM898.593 251.677C901.496 247.32 906.252 240.189 909.162 235.83C914.699 227.539 918.122 226.162 922.434 230.495C924.366 232.437 925.951 232.492 928.783 230.715C935.332 226.605 943.687 229.882 949.254 238.746C954.501 247.1 959.774 249.002 964.614 244.282C966.817 242.133 967.101 244.003 966.138 254.318C965.486 261.29 964.694 270.798 964.376 275.446C963.855 283.082 963.291 283.841 958.542 283.313C955.651 282.989 950.997 282.755 948.196 282.791C945.396 282.825 940.846 281.367 938.086 279.548C930.484 274.542 924.761 276.585 917.02 287.067C913.158 292.297 908.049 298.713 905.667 301.329C900.006 307.545 889.958 307.569 883.407 301.384C879.211 297.422 878.133 297.171 876.526 299.783C875.479 301.486 875.124 304.889 875.738 307.349C876.692 311.173 875.692 312.012 868.819 313.153C852.769 315.819 851.321 315.31 851.321 307C851.321 298.014 854.502 291.293 858.753 291.293C860.447 291.293 861.833 290.38 861.833 289.263C861.833 288.145 863.815 285.377 866.237 283.108C869.357 280.188 870.219 277.644 869.193 274.394C866.939 267.261 875.28 259.6 885.299 259.6C892.223 259.6 894.035 258.52 898.593 251.677ZM81.6255 255.374C80.5933 255.374 79.7481 253.948 79.7481 252.205C79.7481 250.462 81.1378 249.036 82.8365 249.036C84.716 249.036 85.4498 250.274 84.7139 252.205C84.0475 253.948 82.6578 255.374 81.6255 255.374ZM971.201 286.038C969.519 284.995 969.685 269.009 971.537 253.79C971.962 250.288 974.268 250.447 977.359 254.191C978.74 255.864 981.918 257.527 984.42 257.889C987.889 258.387 989.279 260.458 990.267 266.61C992.121 278.134 996.814 282.29 1004.63 279.326C1011.43 276.744 1015.31 278.88 1015.31 285.214C1015.31 287.217 1018.43 292.971 1022.25 297.997C1028.13 305.751 1029.06 308.5 1028.33 316.1C1027.33 326.682 1031.02 329.354 1041.28 325.462C1051.58 321.556 1052.58 325.374 1045.2 340.348C1041.59 347.648 1037.22 357.189 1035.49 361.546C1032.51 369.051 1031.84 369.469 1022.92 369.469C1013.04 369.469 1011.52 370.488 1002.69 383.019C999.801 387.122 996.574 390.507 995.519 390.539C994.463 390.573 989.432 388.143 984.338 385.143C980.608 382.946 978.516 381.513 976.244 381.119C972.321 380.438 967.861 382.852 953.497 389.768C948.674 392.09 946.697 392.166 944.036 390.135C942.186 388.724 940.268 387.289 939.774 386.949C939.28 386.607 940.674 385.007 942.871 383.393C946.308 380.866 946.5 379.768 944.242 375.493C942.371 371.95 942.156 367.663 943.491 360.542C944.521 355.053 944.925 348.248 944.387 345.421C943.758 342.116 945.362 337.394 948.873 332.198C951.878 327.755 954.337 322.018 954.337 319.451C954.337 316.884 955.332 314.167 956.549 313.411C957.764 312.654 958.567 309.508 958.334 306.419C957.44 294.625 958.149 293.406 965.9 293.406C973.078 293.406 976.162 289.119 971.201 286.038ZM810.039 289.18C810.987 289.18 814.17 287.279 817.109 284.954C825.287 278.489 833.627 279.495 841.513 287.9C846.338 293.04 847.703 295.935 846.33 298.12C845.279 299.795 845.066 304.642 845.859 308.891C847.398 317.138 852.788 320.182 862.535 318.31C867.095 317.434 867.291 317.862 866.05 326.073C864.307 337.62 862.653 339.883 855.927 339.921C847.04 339.969 840.319 344.546 837.729 352.313C835.633 358.599 834.977 359.082 832.254 356.344C827.135 351.199 820.439 348.341 813.51 348.341C808.104 348.341 806.454 349.545 804.093 355.207C802.518 358.983 798.921 364.248 796.098 366.909C791.376 371.354 790.222 371.546 781.722 369.317C776.64 367.984 768.472 366.427 763.574 365.858C755.654 364.937 754.454 365.383 752.755 369.873C751.704 372.651 749.316 376.201 747.447 377.76C744.976 379.82 744.657 381.333 746.278 383.296C747.857 385.206 747.829 386.419 746.185 387.439C741.671 390.243 733.869 386.282 727.182 377.794L720.412 369.205L724.899 366.049C728.674 363.391 729.383 360.775 729.383 349.511C729.383 338.273 729.949 336.179 732.917 336.426C735.068 336.606 736.96 334.653 737.753 331.438C738.585 328.057 740.53 326.155 743.154 326.155C745.407 326.155 748.199 325.539 749.356 324.784C750.512 324.032 755.555 322.31 760.563 320.96C767.013 319.221 770.693 316.696 773.178 312.308C776.106 307.135 778.03 306.109 784.814 306.096C791.603 306.085 794.203 304.693 800.626 297.632C804.854 292.983 809.09 289.18 810.039 289.18ZM906.359 307.452C907.885 305.88 912.921 299.246 917.546 292.709C922.171 286.169 927.185 280.798 928.688 280.775C930.19 280.75 934.298 282.225 937.813 284.05C941.328 285.878 945.606 286.833 947.322 286.171C949.035 285.51 952.26 285.95 954.489 287.15C958.265 289.18 958.313 289.679 955.214 294.433C953.162 297.579 952.441 301.295 953.333 304.118C954.815 308.811 953.955 311.291 943.87 331.438C939.652 339.864 938.321 345.144 939.028 350.646C939.564 354.819 939.087 361.565 937.968 365.637C936.776 369.979 936.701 374.416 937.787 376.366C939.259 379.007 938.229 379.998 932.799 381.164C921.591 383.573 920.312 385.65 921.902 398.87C922.682 405.361 924.21 411.79 925.295 413.159C928.495 417.191 921.494 428.651 915.914 428.52L911.239 428.408L915.969 425.093C921.847 420.971 922.011 416.808 916.415 413.797C911.23 411.008 903.88 412.976 903.88 417.151C903.88 421.372 893.989 421.017 885.02 416.477C877.031 412.435 874.983 407.683 874.657 392.441C874.531 386.55 873.194 381.618 871.294 380.034C867.333 376.729 867.232 370.746 871.083 367.532C872.702 366.182 874.121 362.024 874.235 358.294C874.35 354.563 874.682 348.658 874.973 345.171C875.418 339.784 874.779 338.858 870.699 339.008C867.398 339.128 866.576 338.503 868.071 337.001C869.265 335.801 870.242 331.845 870.242 328.213C870.242 323.863 872.076 319.878 875.618 316.533C878.805 313.525 880.596 309.935 880.02 307.714C878.828 303.138 880.058 302.969 884.208 307.14C888.136 311.086 902.625 311.291 906.359 307.452ZM368.3 312.39C365.154 312.363 365.079 312.058 367.774 310.309C371.741 307.731 371.979 307.731 371.979 310.309C371.979 311.471 370.324 312.407 368.3 312.39ZM363.569 345.028C363.569 343.287 365.968 337.104 368.901 331.29C371.535 326.065 372.918 323.191 374.928 322.649C377.387 321.986 380.783 324.808 388.552 331.081C405.196 344.518 410.505 363.775 402.163 380.456C398.389 388.004 398.553 392.711 402.587 392.711C404.389 392.711 405.28 393.662 404.566 394.824C403.851 395.986 400.67 396.937 397.495 396.937C390.972 396.937 376.875 409.838 379.226 413.658C381.219 416.901 387.364 416.525 386.109 413.235C385.495 411.632 386.647 410.52 388.92 410.52C391.895 410.52 392.239 411.163 390.438 413.343C388.636 415.526 389.138 416.439 392.658 417.362C397.943 418.752 398.572 421.313 394.054 423.056C392.319 423.724 390.9 425.549 390.9 427.113C390.9 430.574 401.717 441.307 405.207 441.307C408.447 441.307 408.346 444.045 404.578 458.21C402.879 464.602 402.009 471.494 402.644 473.528C403.279 475.563 402.732 477.226 401.429 477.226C400.127 477.226 399.581 476.383 400.214 475.352C400.846 474.323 399.93 472.28 398.172 470.816C395.733 468.783 393.753 468.715 389.777 470.534C386.777 471.91 380.577 472.366 375.124 471.614C368.581 470.714 365.672 471.071 365.672 472.778C365.672 474.135 364.017 475.859 361.992 476.609C353.709 479.677 344.353 488.545 345.352 492.382C346.555 497.007 343.512 497.594 341.784 493.073C339.154 486.18 335.673 489.795 327.03 508.391C325.274 512.167 322.27 515.258 320.353 515.258C317.857 515.258 317.298 516.308 318.381 518.955C321.536 526.657 321.936 530.048 319.688 530.048C318.412 530.048 316.762 526.245 316.022 521.596C315.282 516.948 313.865 513.145 312.875 513.145C307.471 513.145 290.797 518.738 289.355 521.032C286.624 525.383 283.332 524.092 284.057 518.955C284.497 515.856 286.422 513.96 289.589 513.508C295.547 512.661 298.143 506.958 293.707 504.463C291.924 503.462 289.799 498.127 288.97 492.576C287.228 480.896 284.755 475.61 278.749 470.723L274.437 467.213L278.862 465.8C284.253 464.08 286.202 459.575 284.501 452.761C282.6 445.155 279.474 446.574 279.474 455.041C279.474 459.953 278.49 462.436 276.545 462.436C271.325 462.436 271.239 468.202 276.386 473.061C279.495 475.998 282.365 482.305 283.933 489.66C285.327 496.185 287.291 503.187 288.3 505.222C289.921 508.488 288.947 508.919 279.968 508.919C274.378 508.919 268.815 509.912 267.61 511.123C266.086 512.655 263.456 512.198 259.001 509.629L252.587 505.929L261.146 498.296C267.129 492.958 269.294 489.597 268.346 487.114C266.395 482.003 257.01 482.599 254.126 488.016C252.391 491.272 251.128 491.841 249.425 490.129C245.832 486.518 239.863 487.351 235.888 492.016C233.907 494.34 231.42 496.242 230.358 496.242C229.297 496.242 227.207 497.905 225.712 499.939C223.534 502.902 222.464 503.113 220.328 500.996C216.642 497.343 210.096 497.681 210.096 501.524C210.096 503.267 209.257 504.693 208.233 504.693C205.859 504.693 189.114 488.103 175.064 471.836C169.093 464.923 160.477 454.988 155.915 449.759C151.353 444.529 146.541 438.174 145.22 435.636C141.043 427.603 142.334 416.857 148.338 409.684L153.859 403.092L157.008 407.611C159.702 411.475 161.465 411.932 169.219 410.763L178.28 409.396L176.228 416.87C173.846 425.541 176.273 431.841 182.796 433.923C187.89 435.547 200.357 431.729 203.877 427.466C205.393 425.632 210.159 424.404 215.77 424.404C223.317 424.404 226.328 423.206 231.281 418.228C234.662 414.831 237.426 412.929 237.426 414.002C237.426 415.076 238.766 415.953 240.406 415.953C242.043 415.953 243.74 417.03 244.177 418.346C245.357 421.905 253.512 418.644 260.433 411.845L266.406 405.978L267.661 413.605C268.35 417.801 268.926 424.22 268.939 427.867C268.962 434.707 275.86 445.626 278.492 442.993C279.308 442.176 278.444 439.97 276.571 438.087C274.7 436.207 273.144 431.645 273.116 427.952C273.089 424.256 272.242 417.67 271.235 413.312C269.296 404.917 271.716 402.758 277.151 408.029C279.344 410.155 280.5 409.743 283.084 405.916C284.85 403.301 288.062 401.163 290.224 401.163C292.387 401.163 295.336 399.261 296.781 396.937C298.225 394.613 300.565 392.711 301.98 392.711C303.397 392.711 305.567 390.809 306.805 388.485C308.695 384.938 311.207 384.26 322.474 384.26C339.856 384.26 341.873 383.33 347.084 372.907C349.483 368.111 352.847 362.584 354.558 360.623C356.272 358.662 357.081 356.095 356.358 354.918C355.635 353.741 356.961 351.747 359.306 350.485C361.65 349.224 363.569 346.769 363.569 345.028ZM841.948 357.821C842.8 352.025 844.547 346.562 845.832 345.681C847.116 344.797 853.615 344.322 860.273 344.624C870.101 345.068 872.128 345.767 871.047 348.341C869.763 351.396 866.969 362.577 864.677 373.816C863.973 377.27 864.778 380.22 866.91 381.997C869.176 383.888 870.242 388.32 870.242 395.855C870.242 408.262 874.718 415.912 885.144 421.332C892.338 425.07 892.626 426.853 887.272 434.525C884.665 438.26 882.825 445.666 881.976 455.825C880.756 470.444 880.924 471.335 884.7 470.344C892.179 468.377 881.719 482.504 872.845 486.351C868.523 488.226 863.374 490.949 861.402 492.401C858.4 494.615 856.966 494.239 852.574 490.093C845.949 483.839 841.284 485.544 840.426 494.537C839.848 500.588 839.053 501.448 834.502 500.951C819.297 499.297 816.07 498.171 816.348 494.606C816.569 491.773 815.225 491.103 810.325 491.602L804.017 492.242L808.748 488.84C814.159 484.949 815.284 475.113 810.316 475.113C805.388 475.113 791.779 467.133 787.903 461.969C784.568 457.532 784.65 457.073 789.612 452.453C793.55 448.785 794.445 446.441 793.276 442.868C790.354 433.948 791.124 429.669 795.608 429.929C797.921 430.062 801.345 430.829 803.221 431.634C807.493 433.47 813.034 428.15 814.758 420.559C815.467 417.444 819.251 407.966 823.172 399.498C827.091 391.027 830.297 383.184 830.297 382.066C830.297 380.949 831.218 380.034 832.345 380.034C835.612 380.034 840.269 369.258 841.948 357.821ZM804.268 362.584C806.187 358.816 808.594 355.191 809.616 354.525C815.149 350.916 836.613 360.179 836.6 366.169C836.596 367.403 832.881 373.906 828.344 380.619C823.805 387.334 817.546 400.512 814.435 409.901L808.775 426.978L800.38 425.627C790.753 424.081 786.147 426.762 786.147 433.914C786.147 442.22 766.299 446.234 761.757 438.848C760.33 436.53 738.394 426.494 734.904 426.563C733.602 426.589 730.266 428.366 727.491 430.508C724.716 432.653 720.696 433.948 718.556 433.386C716.418 432.822 714.666 433.447 714.666 434.774C714.666 436.101 712.301 438.089 709.41 439.194C706.52 440.299 704.051 442.414 703.923 443.895C703.797 445.376 702.883 442.444 701.892 437.377C700.385 429.678 700.833 426.868 704.617 420.261L709.143 412.357L704.548 404.526C698.495 394.217 698.663 393.307 707.308 389.677C713.87 386.922 714.673 385.717 714.719 378.557L714.771 370.526L723.322 379.632C728.023 384.64 734.048 389.569 736.708 390.585C741.533 392.43 750.167 391.306 750.676 388.766C750.823 388.031 751.157 385.487 751.418 383.114C752.789 370.655 760.824 365.356 770.585 370.473C786.294 378.711 797.368 376.116 804.268 362.584ZM956.127 392.884C960.346 390.814 966.163 388.156 969.054 386.979C973.576 385.136 974.466 385.46 975.431 389.301C976.047 391.758 978.647 394.706 981.212 395.853C983.775 397 985.888 398.902 985.905 400.079C985.989 405.64 990.313 408.173 1000.63 408.703C1015.27 409.456 1017.85 412.426 1007.96 417.142C1000.54 420.681 999.902 420.681 993.892 417.113C990.305 414.983 986.807 414.169 985.76 415.222C984.75 416.236 983.287 422.519 982.507 429.186C981.33 439.251 981.633 441.307 984.288 441.307C988.106 441.307 990.408 448.757 988.701 455.59C987.938 458.65 988.787 461.948 990.959 464.361C993.892 467.617 994.032 469.127 991.85 473.938C989.836 478.382 989.819 480.549 991.772 483.693C993.238 486.052 994.116 487.386 993.814 488.347C993.397 489.671 990.742 490.289 984.296 491.902C978.803 493.277 971.146 496.263 967.28 498.536L960.251 502.671L952.817 496.113C948.268 492.098 943.889 489.945 941.53 490.567C939.408 491.124 936.654 490.345 935.408 488.836C934.161 487.328 930.827 485.508 927.997 484.794C924.77 483.981 921.219 480.279 918.467 474.855L914.079 466.214L902.875 467.621C895.679 468.525 891.169 468.215 890.272 466.755C889.502 465.504 888.165 464.921 887.299 465.457C884.356 467.287 886.695 440.992 889.794 437.415C891.464 435.488 893.968 431.7 895.362 428.993C896.896 426.016 899.102 424.541 900.952 425.256C902.859 425.991 904.902 424.463 906.384 421.193C908.798 415.872 913.135 414.311 915.378 417.96C916.057 419.063 914.693 420.998 912.349 422.26C907.341 424.953 906.853 429.196 911.138 432.771C915.753 436.621 921.978 433.553 927.038 424.932C931.331 417.62 931.396 416.815 928.241 410.165C922.835 398.771 924.286 386.372 931.028 386.372C932.992 386.372 937.716 388.684 941.528 391.509C948.386 396.594 948.533 396.607 956.127 392.884ZM249.917 403.275C248.693 403.275 248.275 402.325 248.99 401.163C249.704 400 250.705 399.05 251.216 399.05C251.727 399.05 252.143 400 252.143 401.163C252.143 402.325 251.14 403.275 249.917 403.275ZM565.009 423.223C567.306 423.956 571.253 422.029 575.577 418.061C583.381 410.894 587.578 410.239 594.492 415.107C598.893 418.205 599.603 418.205 603.009 415.107C608.98 409.677 609.875 410.992 609.331 424.389C609.047 431.353 609.455 437.694 610.237 438.478C611.017 439.262 613.964 438.664 616.786 437.145C621.026 434.865 624.548 434.895 637.082 437.318C646.24 439.089 652.821 441.506 653.695 443.42C654.494 445.163 656.317 448.842 657.749 451.593C661.411 458.637 658.068 461.259 648.073 459.178C643.65 458.257 638.861 457.703 637.427 457.944C635.995 458.187 632.819 457.306 630.369 455.989C626.532 453.925 624.914 454.57 618.674 460.648C614.593 464.625 611.814 469.176 612.308 471.077C613.01 473.778 611.334 474.481 603.926 474.593C593.313 474.754 590.056 476.86 586.293 485.99C584.216 491.027 584.17 493.402 586.085 496.485C588.027 499.612 587.979 500.468 585.856 500.468C582.557 500.468 569.602 512.078 569.602 515.034C569.602 516.204 571.259 518.099 573.281 519.247C576.168 520.884 576.412 521.89 574.41 523.921C572.403 525.959 569.743 524.852 561.895 518.706C551.509 510.576 545.719 500.685 547.939 494.871C548.761 492.715 547.388 490.049 544.176 487.566C541.395 485.418 540.236 483.636 541.605 483.611C542.974 483.586 547.494 479.392 551.652 474.291L559.214 465.02L555.253 454.747C548.028 436.006 548.002 431.966 555.075 426.711C558.584 424.104 562.957 422.568 565.009 423.223ZM724.394 492.635C720.784 489.009 726.616 452.484 731.809 446.196C734.527 442.907 747.472 442.471 749.4 445.607C750.796 447.874 771.885 447.124 782.468 444.432C789.608 442.617 790.236 446.408 783.679 451.745L779.108 455.463L783.912 463.275C787.036 468.358 790.789 471.504 794.655 472.28C797.923 472.937 801.099 474.794 801.715 476.406C802.331 478.018 804.282 479.339 806.055 479.339C811.123 479.339 809.812 484.674 803.969 487.816C797.391 491.355 798.36 495.213 805.8 495.103C809.648 495.044 811.376 496.115 811.376 498.56C811.376 501.245 814.681 502.728 825.018 504.689C842.247 507.956 845.014 506.918 845.014 497.188C845.014 486.694 850.019 488.731 850.387 499.375C850.621 506.111 852.158 508.78 859.436 515.072C864.259 519.24 868.19 524.341 868.172 526.403C868.15 528.924 870.293 530.587 874.704 531.472C881.183 532.776 881.25 532.921 880.065 542.981C878.326 557.741 875.618 561.741 867.364 561.741C863.553 561.741 859.859 562.318 859.156 563.021C858.456 563.725 850.043 564.281 840.458 564.255C824.268 564.211 822.726 563.822 818.702 558.749C811.781 550.025 806.242 552.951 808.422 564.179L809.383 569.136L806.904 564.382C802.602 556.131 792.454 559.643 792.454 569.383C792.454 574.832 789.004 576.594 782.819 574.3C780.41 573.408 777.212 573.44 775.711 574.372C774.09 575.38 770.068 574.334 765.777 571.79C759.695 568.183 757.71 567.908 753.083 570.028C747.972 572.367 747.794 572.278 750.464 568.724C759.315 556.951 778.448 540.612 783.385 540.612C788.151 540.612 801.577 536.919 815.055 531.901C820.891 529.727 821.324 523.709 815.646 523.709C813.369 523.709 807.646 525.731 802.928 528.201C795.585 532.049 790.213 532.767 765.546 533.2C749.705 533.479 734.376 534.453 731.485 535.366L726.229 537.022L732.011 531.523C735.19 528.499 737.792 523.813 737.792 521.11C737.792 518.408 739.685 514.569 741.997 512.579C744.31 510.588 746.202 507.049 746.202 504.714C746.202 501.858 747.596 500.468 750.459 500.468C753.064 500.468 755.49 498.42 756.714 495.185C757.813 492.28 760.155 489.903 761.917 489.903C764.198 489.903 765.123 487.704 765.123 482.282C765.123 476.03 764.493 474.904 761.612 476.015C759.68 476.759 757.418 476.258 756.581 474.9C755.553 473.226 754.284 473.892 752.65 476.96C750.85 480.342 748.979 481.173 745.264 480.235C741.442 479.271 739.968 480.004 738.892 483.408C737.425 488.059 726.656 494.911 724.394 492.635ZM617.623 473C618.018 470.095 619.872 465.996 621.745 463.889C623.846 461.529 626.791 460.507 629.438 461.221C631.795 461.857 636.216 462.391 639.26 462.406C643.015 462.427 645.151 463.797 645.898 466.662C646.553 469.184 648.765 470.887 651.383 470.887C653.794 470.887 658.341 473.793 661.489 477.342C665.508 481.874 668.509 483.47 671.568 482.696C674.656 481.919 675.993 482.652 676.165 485.223C676.298 487.216 677.088 493.698 677.923 499.627C679.317 509.547 679.073 510.5 674.866 511.607C670.357 512.792 670.401 513.018 677.944 528.074C685.336 542.824 685.492 543.6 682.536 550.957C680.854 555.145 678.297 562.375 676.853 567.023C675.411 571.671 672.097 577.852 669.49 580.757C666.886 583.662 663.103 588.655 661.085 591.849C659.069 595.044 656.212 597.66 654.736 597.66C651.502 597.66 649.268 612.465 651.976 615.943C654.107 618.677 637.183 629.18 623.646 633.522C619.258 634.929 611.635 639.176 606.705 642.958C601.775 646.74 595.142 650.334 591.963 650.944C584.603 652.358 579.353 647.479 581.026 640.779C582.023 636.784 580.57 634.755 572.909 629.459C558.571 619.545 558.321 613.549 571.677 600.126C577.984 593.787 579.921 584.936 576.267 579.151C575.342 577.687 570.393 575.27 565.271 573.78C554.246 570.571 552.481 565.929 559.837 559.499C562.709 556.989 565.625 552.664 566.318 549.888C567.145 546.579 569.094 544.838 571.972 544.838C575.609 544.838 576.138 543.927 575.045 539.556C574.32 536.651 574.585 534.274 575.636 534.274C576.685 534.274 578.201 530.753 579.004 526.45C580.125 520.447 579.666 518.04 577.032 516.105C573.973 513.857 574.274 513.098 579.809 509.137C583.224 506.694 587.472 504.693 589.249 504.693C594.311 504.693 595.577 500.573 591.803 496.383C588.936 493.197 588.786 491.634 590.908 486.958C593.508 481.219 596.654 479.852 609.547 478.853C615.613 478.382 617.032 477.355 617.623 473ZM887.061 481.407C887.061 476.664 889.687 474.796 900.727 471.692C905.352 470.391 909.361 469.201 909.635 469.051C909.91 468.899 912.569 472.649 915.544 477.387C921.074 486.189 934.009 493.992 943.226 494.082C945.787 494.108 948.861 495.967 950.059 498.215C953.154 504.03 952.855 504.693 947.151 504.693C940.895 504.693 935.416 506.686 935.416 508.961C935.416 509.897 938.727 515.716 942.774 521.892C946.821 528.068 950.133 535.281 950.133 537.922C950.133 542.117 949.067 542.725 941.723 542.725C937.584 542.725 935.039 542.595 934.112 543.758C932.637 545.61 935.268 550.744 942.106 564.91C945.154 571.226 946.933 571.756 955.914 569.024C959.345 567.982 960.645 568.451 960.645 570.738C960.645 572.485 958.067 574.41 954.863 575.056C951.684 575.699 946.243 577.414 942.774 578.87C939.305 580.326 932.82 581.644 928.358 581.798C921.755 582.029 919.835 581.165 918.013 577.142C915.641 571.912 913.127 571.006 896.831 569.495C881.339 568.058 879.608 565.274 883.515 548.064C886.571 534.601 886.532 533.741 882.686 529.877C880.468 527.648 877.233 525.822 875.498 525.822C873.764 525.822 872.345 524.567 872.345 523.033C872.345 521.499 868.087 516.399 862.884 511.7C852.759 502.557 851.022 498.355 857.371 498.355C859.541 498.355 862.453 496.981 863.841 495.302C865.226 493.622 871.018 490.693 876.711 488.792C884.171 486.303 887.061 484.239 887.061 481.407ZM249.803 494.657C251.977 496.781 253.192 496.381 256.005 492.622C259.363 488.133 264.844 486.081 264.678 489.375C264.633 490.246 260.351 494.287 255.158 498.355C244.629 506.601 242.849 514.641 251.763 513.673C254.437 513.384 258.454 514.129 260.691 515.332C263.488 516.836 266.023 516.838 268.811 515.34C274.554 512.249 279.121 514.679 279.878 521.229C280.618 527.65 287.354 530.166 290.898 525.345C292.13 523.669 295.654 521.668 298.726 520.899C301.799 520.13 305.762 518.943 307.532 518.26C309.927 517.337 311.113 518.943 312.153 524.514C313.835 533.528 318.175 537.941 322.119 534.654C323.887 533.177 325.878 533.105 327.9 534.445C330.459 536.139 329.998 537.299 325.201 541.269C322.022 543.9 319.419 547.042 319.419 548.248C319.419 549.467 316.722 550.046 313.36 549.552C305.497 548.392 304.69 550.154 307.522 562.28C309.141 569.214 311.174 572.743 314.083 573.672C318.233 574.995 318.229 575.041 313.863 576.666C311.424 577.573 307.507 581.025 305.161 584.336C301.366 589.69 301.198 591.082 303.643 596.924C305.152 600.535 307.429 604.136 308.699 604.926C309.971 605.714 311.01 607.254 311.01 608.349C311.01 613.337 305.964 609.082 293.541 593.62C271.424 566.087 249.141 540.967 246.675 540.785C241.959 540.433 214.3 511.662 214.3 507.108C214.3 501.864 214.984 501.653 220.586 505.171C224.19 507.432 225.731 506.762 232.736 499.889C241.192 491.589 245.355 490.313 249.803 494.657ZM384.36 543.418C387.488 544.046 391.421 543.686 393.101 542.619C397.764 539.653 399.598 540.204 400.832 544.946C401.957 549.269 405.177 549.406 418.46 545.689C420.321 545.168 423.037 546.19 424.498 547.959C428.432 552.723 432.79 551.872 435.05 545.894C436.15 542.989 437.781 540.633 438.677 540.659C441.479 540.739 449.083 547.756 452.838 553.725C456.881 560.15 455.712 563.854 449.643 563.854C447.116 563.854 445.562 565.301 445.562 567.657C445.562 573.127 449.727 576.531 456.421 576.531C460.173 576.531 463.07 578.103 464.595 580.966C466.802 585.111 466.548 585.31 460.663 584.011C453.147 582.352 451.447 584.448 453.191 593.216C454.112 597.837 455.698 599.773 458.563 599.773C464.275 599.773 461.328 603.502 452.777 607.092C447.294 609.393 445.562 611.387 445.562 615.387C445.562 618.284 446.508 621.24 447.664 621.958C448.821 622.676 449.731 626.773 449.685 631.062C449.62 637.479 448.423 639.609 442.94 643.087C439.276 645.411 435.622 649.689 434.823 652.594C433.355 657.915 432.506 657.002 432.111 649.683C431.993 647.5 426.538 641.005 419.989 635.248C409.689 626.196 407.496 625.1 403.743 627.117C400.258 628.992 399.625 628.871 400.529 626.505C401.147 624.884 400.239 623.014 398.511 622.347C396.377 621.525 393.639 624.1 389.981 630.373C387.017 635.455 384.593 640.524 384.593 641.635C384.593 645.806 374.422 650.108 361.334 651.468L347.801 652.878L330.234 635.034C314.207 618.759 312.786 616.642 314.033 610.933C314.964 606.669 314.43 603.863 312.362 602.135C310.688 600.74 308.708 597.151 307.961 594.155C306.384 587.843 311.506 580.757 317.643 580.757C322.676 580.757 322.627 575.741 317.559 572.035C315.378 570.44 313.089 565.677 312.473 561.447C311.378 553.942 311.508 553.767 318.013 554.052C323.164 554.28 324.543 553.543 324.093 550.807C323.218 545.474 327.583 543.959 332.069 548.041C335.189 550.877 337.315 551.219 341.923 549.628C350.352 546.716 353.101 548.309 351.712 555.295C351.062 558.559 351.506 561.834 352.694 562.571C355.475 564.3 373.389 552.199 376.385 546.57C378.111 543.329 380.069 542.556 384.36 543.418ZM742.998 551.094C740.959 547.779 743.992 545.328 751.458 544.261C763.164 542.586 766.219 543.154 758.587 545.588C754.414 546.919 749.532 549.241 747.737 550.752C745.353 552.757 744.076 552.848 742.998 551.094ZM804.787 568.255C809.957 574.672 814.311 571.788 812.618 563.07L811.334 556.459L816.085 562.149C820.494 567.429 822.241 567.9 840.357 568.694C851.094 569.166 860.374 568.743 860.979 567.758C862.865 564.69 876.434 565.791 883.487 569.586C887.187 571.576 895.418 573.715 901.778 574.34C911.609 575.303 913.438 576.159 913.989 580.049C914.55 584.009 913.112 584.968 903.296 587.176C894.861 589.073 890.825 589.12 887.557 587.362C881.704 584.216 877.184 586.238 874.939 593.005C873.406 597.63 871.754 598.6 865.014 598.835C858.786 599.052 855.557 600.658 850.97 605.818C847.694 609.502 845.014 614.909 845.014 617.831C845.014 620.756 843.595 623.695 841.86 624.362C840.126 625.032 838.677 628.091 838.639 631.164C838.604 634.236 837.224 638.538 835.574 640.727C833.013 644.128 832.997 645.717 835.463 651.648C837.05 655.466 837.798 659.142 837.126 659.816C836.453 660.492 839.592 664.249 844.097 668.164C851.247 674.376 851.931 675.722 849.448 678.729C847.881 680.624 844.623 682.175 842.203 682.175C838.082 682.175 838.028 682.399 841.345 685.731C844.661 689.065 845.153 689.042 849.195 685.365C853.404 681.537 853.701 681.554 861.635 686.035C866.105 688.56 871.71 690.626 874.088 690.626C877.91 690.626 878.385 691.858 878.175 701.191C878.015 708.207 877.037 711.755 875.259 711.755C873.787 711.755 871.169 713.783 869.439 716.264C866.927 719.873 862.8 721.208 848.823 722.945C839.211 724.136 827.856 724.451 823.588 723.644C816.997 722.395 815.097 720.684 810.974 712.285C807.326 704.852 803.387 700.802 795.12 695.982C786.286 690.833 784.112 688.473 784.083 684.007C784.057 680.237 782.689 678.084 779.84 677.336C774.237 675.864 774.447 668.692 780.208 664.849C785.264 661.475 784.31 653.928 779.081 655.943C777.42 656.584 775.461 656.134 774.729 654.944C773.049 652.21 781.654 646.412 787.215 646.531C789.517 646.579 793.531 645.952 796.133 645.136C799.035 644.225 800.864 644.534 800.864 645.937C800.864 647.194 803.542 651.346 806.816 655.162C810.089 658.98 813.341 663.685 814.039 665.62C815.095 668.538 834.283 680.062 838.086 680.062C841.171 680.062 832.923 673.117 826.771 670.535C822.914 668.914 818.879 665.261 817.803 662.417C816.726 659.573 813.938 655.903 811.607 654.264C809.275 652.622 806.362 648.616 805.13 645.36C803.202 640.264 802.089 639.636 797.147 640.851C793.987 641.629 788.14 642.451 784.15 642.677C777.29 643.063 776.777 642.609 774.689 634.291L772.482 625.497L763.645 630.507C756.932 634.312 755.112 634.724 756.068 632.22C757.746 627.825 752.742 624.865 746.027 626.279C738.921 627.775 738.419 621.354 745.502 619.568C750.77 618.239 751.559 616.587 748.447 613.401C747.369 612.298 746.187 608.541 745.819 605.055C745.208 599.251 745.744 598.659 752.175 598.04C758.972 597.385 759.081 597.231 755.528 593.286C753.51 591.042 750.585 589.208 749.03 589.208C745.218 589.208 745.447 587.765 750.579 579.421C755.631 571.207 759.788 570.501 766.389 576.734C769.995 580.138 771.96 580.668 774.88 579.026C777.361 577.63 780.004 577.6 782.493 578.94C788.453 582.145 794.586 579.028 795.965 572.092C797.63 563.723 800.227 562.595 804.787 568.255ZM977.359 561.593C981.462 561.511 986.714 560.68 989.027 559.744C991.339 558.81 994.924 558.931 996.99 560.01C999.059 561.092 1004.86 561.356 1009.88 560.6C1020.51 558.998 1023.38 561.589 1017.21 567.201C1014.36 569.799 1008.15 571.551 998.721 572.419C976.452 574.471 964.902 578.585 963.571 584.94C960.352 600.301 957.481 604.884 950.124 606.397C942.327 607.998 935.416 614.818 935.416 620.91C935.416 625.856 931.318 627.24 916.673 627.24C910.023 627.24 903.983 627.84 903.254 628.573C900.065 631.779 906.609 637.855 914.638 639.146C919.327 639.898 923.655 641.806 924.259 643.387C924.86 644.965 927.562 646.256 930.261 646.256C932.96 646.256 935.691 647.107 936.331 648.147C938.01 650.879 932.267 652.594 921.439 652.594C916.255 652.594 910.082 653.634 907.721 654.904C904.616 656.573 902.793 656.573 901.133 654.904C896.703 650.452 891.378 652.464 888.354 659.732C886.723 663.657 884.345 667.516 883.071 668.308C881.797 669.1 880.754 673.493 880.754 678.074C880.754 684.471 879.934 686.401 877.214 686.401C869.925 686.401 855.717 677.567 851.527 670.431C849.179 666.432 846.279 663.159 845.085 663.159C843.889 663.159 842.911 661.84 842.911 660.23C842.911 658.62 841.526 654.619 839.831 651.337C837.063 645.975 837.117 644.963 840.357 641.358C842.34 639.155 843.675 635.601 843.323 633.465C842.972 631.328 844.629 627.627 847.003 625.241C849.378 622.854 851.321 618.837 851.321 616.314C851.321 609.38 857.361 603.998 865.14 603.998C875.151 603.998 878.652 602.057 878.652 596.502C878.652 590.085 881.332 588.6 887.677 591.507C891.609 593.307 896.631 593.064 909.084 590.476C918.031 588.617 927.635 587.095 930.425 587.095C933.215 587.095 942.102 584.513 950.173 581.357C961.82 576.804 964.849 574.71 964.849 571.215C964.849 564.843 968.854 561.762 977.359 561.593ZM453.971 635.085C453.971 632.319 454.602 629.423 455.374 628.649C456.143 627.874 460.077 627.24 464.113 627.24C469.493 627.24 474.451 629.564 482.671 635.937C493.62 644.426 493.856 644.836 492.548 653.055C491.097 662.174 494.007 666.134 500.634 664.061C503.644 663.121 504.016 664.067 503.033 670.169C502.24 675.075 503.03 679.179 505.499 682.963C508.297 687.256 508.574 689.208 506.701 691.476C503.987 694.763 485.959 701.191 479.454 701.191C477.138 701.191 474.659 702.141 473.944 703.304C472.142 706.234 444.689 705.955 434.55 702.904C429.958 701.52 425.728 699.143 425.146 697.622C424.563 696.099 421.801 694.852 419.005 694.852C411.657 694.852 368.543 671.175 359.69 662.278C355.408 657.976 358.563 654.707 366.996 654.707C371.058 654.707 375.801 653.281 377.535 651.538C379.27 649.795 382.514 648.369 384.742 648.369C387.004 648.369 388.798 646.919 388.798 645.094C388.798 643.294 390.324 638.852 392.191 635.225C395.086 629.598 395.872 629.142 397.533 632.125C399.04 634.834 400.296 635.108 403.106 633.344C408.15 630.179 424.231 640.758 425.779 648.259C428.516 661.528 436.694 664.72 439.6 653.651C440.596 649.863 443.821 645.863 447.618 643.714C451.905 641.284 453.971 638.478 453.971 635.085ZM763.019 653.207C760.704 653.816 759.34 653.45 759.989 652.398C760.637 651.344 762.529 650.482 764.196 650.482C768.548 650.482 767.928 651.916 763.019 653.207ZM921.21 657.961C922.814 658.58 926.43 658.16 929.246 657.029C932.061 655.899 935.58 654.914 937.066 654.84C942.083 654.593 950.133 661.5 950.133 666.051C950.133 668.538 952.388 676.825 955.147 684.465C960.891 700.379 959.896 704.339 949.594 706.551C940.041 708.605 937.518 711.237 937.518 719.15C937.518 727.561 934.747 730.014 923.853 731.248C919.228 731.772 913.957 732.867 912.138 733.68C909.824 734.718 908.098 733.535 906.372 729.727C904.879 726.435 900.168 722.683 894.42 720.206C882.268 714.971 879.348 709.04 882.575 696.154C883.887 690.922 884.988 683.497 885.024 679.654C885.11 670.605 893.764 655.95 897.064 659.267C898.78 660.991 901.917 660.981 908.848 659.227C914.043 657.913 919.606 657.342 921.21 657.961ZM786.097 726.313C787.24 715.4 788.193 705.285 788.214 703.832C788.233 702.38 790.205 701.191 792.593 701.191C798.572 701.191 805.464 705.178 803.895 707.728C803.185 708.881 803.83 711.313 805.331 713.128C806.83 714.945 809.059 718.451 810.285 720.919C813.356 727.111 829.048 729.512 848.97 726.837C863.321 724.91 864.995 725.094 870.539 729.214C879.047 735.535 878.833 736.839 865.43 760.233C862.014 766.195 861.965 767.222 864.904 771.439C868.588 776.724 869.107 787.098 866.09 795.076C864.486 799.315 862.592 800.496 857.403 800.496C853.753 800.496 847.686 802.41 843.921 804.749L837.073 809L835.782 803.832C834.208 797.525 828.556 795.433 820.948 798.341C817.527 799.646 813.915 799.769 811.918 798.645C809.019 797.016 809.126 796.602 812.738 795.45C818.909 793.481 831.508 779.707 829.137 777.522C828.041 776.513 822.255 775.141 816.278 774.478C807.322 773.481 803.538 774.207 794.729 778.619C788.853 781.562 784.045 785.266 784.045 786.851C784.045 788.435 783.015 792.006 781.755 794.785C779.825 799.042 778.024 799.805 770.297 799.638C765.033 799.524 761.917 798.649 762.977 797.584C764.036 796.519 763.929 794.267 762.729 792.302C761.263 789.904 761.587 786.604 763.809 781.311C767.346 772.885 770.413 769.836 780.391 764.826C787.591 761.211 790.337 753.805 786.294 748.91C784.688 746.964 784.629 740.315 786.097 726.313ZM465.215 713.764C470.82 712.82 475.945 711.506 476.601 710.844C478.43 709.008 481.302 709.414 481.302 711.508C481.302 714.109 473.402 715.964 463.432 715.704L455.023 715.484L465.215 713.764Z" fill="#3C7D28" fill-opacity="0.06"/>
<path d="M652.831 9.22435C647.233 15.2946 641.939 15.9391 636.708 11.183C633.357 8.13411 632.941 8.22285 631.671 12.2394C629.926 17.7688 620.692 18.2928 619.651 12.9219C619.059 9.86455 616.397 9.16519 604.256 8.87784C596.181 8.68768 584.943 7.86789 579.284 7.05654C569.518 5.65571 561.46 7.02696 545.425 12.8183C541.956 14.0713 536.135 14.9714 532.487 14.8192C525.919 14.5446 525.869 14.6206 527 23.0954C527.994 30.5559 527.565 31.8025 523.642 32.8336C518.268 34.245 517.547 38.2785 522.824 37.4059C529.405 36.3177 531.423 39.3793 530.195 48.5809C529.295 55.3251 529.817 57.7423 532.497 59.2509C537.871 62.2723 536.605 68.6954 529.657 73.667C522.246 78.9703 521.864 81.7614 527.555 89.0339C533.292 96.3635 532.834 100.389 525.978 102.905C522.58 104.152 521.662 105.096 523.751 105.193C529.525 105.464 530.189 109.098 526.327 119.263C521.96 130.757 523.224 132.614 538.966 137.839C552.356 142.285 552.045 142.346 553.519 134.94C554.871 128.145 559.109 126.702 563.192 131.646C564.573 133.32 567.102 134.15 568.812 133.491C570.521 132.832 574.145 134.395 576.87 136.967C580.976 140.844 582.578 141.232 586.266 139.249C591.85 136.246 593.601 137.345 597.005 145.989C603.066 161.372 608.278 163.228 624.033 155.608C629.364 153.031 633.935 150.838 634.194 150.736C634.45 150.633 633.662 146.906 632.438 142.452C629.833 132.973 632.44 129.926 640.52 133.013C647.478 135.674 647.439 135.707 646.024 128.602C644.695 121.925 647.434 120.351 653.584 124.262C657.498 126.751 664.209 123.252 664.209 118.724C664.209 116.86 662.553 114.059 660.53 112.5C657.309 110.019 657.244 109.394 660.004 107.49C662.887 105.504 677.555 106.514 681.697 108.988C682.643 109.552 682.891 111.394 682.246 113.081C681.497 115.039 683.456 117.444 687.67 119.734C691.296 121.705 697.324 125.933 701.064 129.13C704.804 132.325 710.029 134.94 712.675 134.94C715.322 134.94 719.163 136.464 721.211 138.325C724.119 140.97 727.262 141.387 735.587 140.237C747.453 138.596 753.188 133.111 751.231 125.274C749.879 119.861 753.091 117.201 761.539 116.734C769.091 116.317 767.903 120.962 760.227 121.876C755.436 122.445 754.79 123.301 755.875 127.64C757.689 134.907 746.282 144.322 735.093 144.797C729.778 145.021 725.071 146.855 721.749 149.99C718.543 153.016 712.951 155.264 706.845 155.98L697.072 157.126L696.544 177.707C696.254 189.028 695.474 199.172 694.809 200.249C694.147 201.329 689.356 201.923 684.163 201.57C678.97 201.219 674.721 201.771 674.721 202.797C674.721 203.824 673.31 204.665 671.584 204.665C669.86 204.665 667.268 206.567 665.824 208.891C662.338 214.501 656.536 214.251 653.487 208.363C652.133 205.749 650.731 203.262 650.369 202.84C650.01 202.417 646.427 204.112 642.41 206.607L635.106 211.143L640.293 216.356C643.898 219.979 647.8 221.568 653.102 221.568C657.295 221.568 662.374 223.068 664.392 224.902C667.739 227.947 668.555 227.911 673.748 224.492C679.237 220.877 679.54 220.89 682.428 224.856C686.387 230.29 684.449 237.531 676.268 247.857C671.933 253.329 669.535 258.846 669.276 263.94C669.059 268.206 668.24 273.727 667.455 276.211C666.297 279.877 666.888 280.729 670.582 280.729C673.088 280.729 678.016 283.818 681.535 287.596C686.412 292.829 687.609 293.425 686.564 290.095C684.531 283.613 693.405 275.833 700.728 277.68C705.588 278.905 706.257 278.438 706.257 273.822C706.257 270.933 707.676 267.386 709.41 265.939C711.145 264.491 712.564 261.024 712.564 258.233C712.564 254.966 714.25 252.448 717.294 251.167C724.93 247.958 728.588 244.151 730.171 237.761C730.987 234.465 734.002 229.411 736.867 226.531C739.735 223.651 743.589 218.978 745.435 216.149C749.406 210.057 753.861 209.704 764.215 214.668C771.731 218.27 771.922 218.251 775.734 213.52C780.355 207.784 782.895 193.03 781.162 181.986C777.422 158.148 777.302 148.526 780.645 140.489C785.136 129.686 784.934 124.97 779.84 121.773C775.688 119.166 774.019 113.812 777.359 113.812C778.305 113.812 781.23 116.292 783.853 119.326L788.624 124.841L795.711 117.938C799.607 114.141 805.416 106.009 808.615 99.8667L814.435 88.6959L809.751 83.6863C807.175 80.9311 805.069 77.6265 805.069 76.344C805.069 75.0615 801.783 71.9704 797.765 69.4751C792.057 65.9297 788.5 65.2134 781.471 66.1938C771.344 67.6073 770.478 67.1636 762.577 56.4999C759.455 52.2868 754.731 48.3231 752.078 47.6913C749.425 47.0575 745.269 45.9165 742.844 45.1517C739.315 44.0403 737.914 45.0291 735.818 50.1127C734.38 53.6032 731.897 56.9647 730.302 57.5796C726.227 59.1495 720.973 53.2228 720.973 47.0532C720.973 43.5945 719.371 41.2576 716.157 40.0279C713.508 39.0159 710.081 36.6621 708.54 34.7986C707.001 32.935 703.463 31.4095 700.677 31.4095C694.706 31.4095 692.089 26.3281 695.768 21.8741C698.007 19.1633 696.886 18.7323 687.598 18.7323C678.251 18.7323 675.764 17.7604 668.691 11.3372C664.211 7.26994 659.906 3.94216 659.124 3.94216C658.341 3.94216 655.51 6.31915 652.831 9.22435Z" fill="#3C7D28" fill-opacity="0.06"/>
</svg>
