<svg width="20" height="20" viewBox="0 0 20 20" fill="none" xmlns="http://www.w3.org/2000/svg">
<g clip-path="url(#clip0_2034_1787)">
<path d="M9.64286 1.73647C12.2193 1.73647 12.5244 1.74777 13.5377 1.79297C14.4794 1.8344 14.9879 1.99261 15.3269 2.12444C15.7751 2.29771 16.0991 2.50865 16.4343 2.84389C16.7733 3.1829 16.9805 3.50307 17.1537 3.95131C17.2856 4.29032 17.4438 4.80259 17.4852 5.74051C17.5304 6.75753 17.5417 7.06264 17.5417 9.63532C17.5417 12.2118 17.5304 12.5169 17.4852 13.5301C17.4438 14.4718 17.2856 14.9803 17.1537 15.3193C16.9805 15.7676 16.7695 16.0915 16.4343 16.4268C16.0953 16.7658 15.7751 16.9729 15.3269 17.1462C14.9879 17.278 14.4756 17.4362 13.5377 17.4777C12.5206 17.5229 12.2155 17.5342 9.64286 17.5342C7.06641 17.5342 6.7613 17.5229 5.74805 17.4777C4.80636 17.4362 4.29785 17.278 3.95884 17.1462C3.5106 16.9729 3.18666 16.762 2.85142 16.4268C2.51242 16.0878 2.30525 15.7676 2.13198 15.3193C2.00014 14.9803 1.84194 14.4681 1.8005 13.5301C1.7553 12.5131 1.744 12.208 1.744 9.63532C1.744 7.05887 1.7553 6.75377 1.8005 5.74051C1.84194 4.79883 2.00014 4.29032 2.13198 3.95131C2.30525 3.50307 2.51618 3.17913 2.85142 2.84389C3.19043 2.50488 3.5106 2.29771 3.95884 2.12444C4.29785 1.99261 4.81013 1.8344 5.74805 1.79297C6.7613 1.74777 7.06641 1.73647 9.64286 1.73647ZM9.64286 0C7.02497 0 6.69727 0.0113002 5.66895 0.0565011C4.64439 0.101702 3.94001 0.267439 3.3298 0.504743C2.69322 0.753348 2.15458 1.08105 1.6197 1.6197C1.08105 2.15458 0.753348 2.69322 0.504743 3.32603C0.267439 3.94001 0.101702 4.64062 0.0565011 5.66518C0.0113002 6.69727 0 7.02497 0 9.64286C0 12.2607 0.0113002 12.5884 0.0565011 13.6168C0.101702 14.6413 0.267439 15.3457 0.504743 15.9559C0.753348 16.5925 1.08105 17.1311 1.6197 17.666C2.15458 18.2009 2.69322 18.5324 3.32603 18.7772C3.94001 19.0145 4.64062 19.1802 5.66518 19.2254C6.6935 19.2706 7.0212 19.2819 9.63909 19.2819C12.257 19.2819 12.5847 19.2706 13.613 19.2254C14.6376 19.1802 15.3419 19.0145 15.9521 18.7772C16.585 18.5324 17.1236 18.2009 17.6585 17.666C18.1934 17.1311 18.5248 16.5925 18.7697 15.9597C19.007 15.3457 19.1727 14.6451 19.2179 13.6205C19.2631 12.5922 19.2744 12.2645 19.2744 9.64662C19.2744 7.02874 19.2631 6.70103 19.2179 5.67271C19.1727 4.64816 19.007 3.94378 18.7697 3.33357C18.5324 2.69322 18.2047 2.15458 17.666 1.6197C17.1311 1.08482 16.5925 0.753348 15.9597 0.50851C15.3457 0.271205 14.6451 0.105469 13.6205 0.0602679C12.5884 0.0113002 12.2607 0 9.64286 0Z" fill="#365B49"/>
<path d="M9.64272 4.68945C6.90806 4.68945 4.68945 6.90806 4.68945 9.64272C4.68945 12.3774 6.90806 14.596 9.64272 14.596C12.3774 14.596 14.596 12.3774 14.596 9.64272C14.596 6.90806 12.3774 4.68945 9.64272 4.68945ZM9.64272 12.8557C7.86858 12.8557 6.42969 11.4169 6.42969 9.64272C6.42969 7.86858 7.86858 6.42969 9.64272 6.42969C11.4169 6.42969 12.8557 7.86858 12.8557 9.64272C12.8557 11.4169 11.4169 12.8557 9.64272 12.8557Z" fill="#365B49"/>
<path d="M15.9485 4.49331C15.9485 5.13365 15.4287 5.6497 14.7921 5.6497C14.1518 5.6497 13.6357 5.12988 13.6357 4.49331C13.6357 3.85296 14.1556 3.33691 14.7921 3.33691C15.4287 3.33691 15.9485 3.85673 15.9485 4.49331Z" fill="#365B49"/>
</g>
<defs>
<clipPath id="clip0_2034_1787">
<rect width="19.2857" height="19.2857" fill="white"/>
</clipPath>
</defs>
</svg>
