<svg width="20" height="20" viewBox="0 0 20 20" fill="none" xmlns="http://www.w3.org/2000/svg">
<g clip-path="url(#clip0_2034_1788)">
<path d="M17.8581 0H1.42383C0.636579 0 0 0.621512 0 1.38993V17.892C0 18.6604 0.636579 19.2857 1.42383 19.2857H17.8581C18.6454 19.2857 19.2857 18.6604 19.2857 17.8958V1.38993C19.2857 0.621512 18.6454 0 17.8581 0ZM5.72168 16.4343H2.85896V7.22838H5.72168V16.4343ZM4.29032 5.97405C3.37123 5.97405 2.62919 5.232 2.62919 4.31669C2.62919 3.40137 3.37123 2.65932 4.29032 2.65932C5.20564 2.65932 5.94768 3.40137 5.94768 4.31669C5.94768 5.22824 5.20564 5.97405 4.29032 5.97405ZM16.4343 16.4343H13.5753V11.9594C13.5753 10.8934 13.5565 9.51855 12.0875 9.51855C10.5996 9.51855 10.3736 10.6825 10.3736 11.8841V16.4343H7.51842V7.22838H10.2606V8.48647H10.2983C10.6787 7.76325 11.6129 6.9986 13.0028 6.9986C15.8994 6.9986 16.4343 8.90458 16.4343 11.3831V16.4343Z" fill="#365B49"/>
</g>
<defs>
<clipPath id="clip0_2034_1788">
<rect width="19.2857" height="19.2857" fill="white"/>
</clipPath>
</defs>
</svg>
