<svg width="20" height="20" viewBox="0 0 20 20" fill="none" xmlns="http://www.w3.org/2000/svg">
<g clip-path="url(#clip0_2034_1785)">
<path d="M19.2857 9.64286C19.2857 4.31725 14.9685 0 9.64286 0C4.31725 0 0 4.31725 0 9.64286C0 14.4558 3.52623 18.4452 8.13616 19.1686V12.4302H5.68778V9.64286H8.13616V7.51841C8.13616 5.10167 9.57581 3.76674 11.7784 3.76674C12.8331 3.76674 13.9369 3.95508 13.9369 3.95508V6.32812H12.721C11.5232 6.32812 11.1496 7.07149 11.1496 7.83482V9.64286H13.8239L13.3964 12.4302H11.1496V19.1686C15.7595 18.4452 19.2857 14.4558 19.2857 9.64286Z" fill="#365B49"/>
</g>
<defs>
<clipPath id="clip0_2034_1785">
<rect width="19.2857" height="19.2857" fill="white"/>
</clipPath>
</defs>
</svg>
