<svg width="20" height="20" viewBox="0 0 20 20" fill="none" xmlns="http://www.w3.org/2000/svg">
<g clip-path="url(#clip0_2034_1786)">
<path d="M6.06709 17.4778C13.3429 17.4778 17.3236 11.4484 17.3236 6.22131C17.3236 6.0518 17.3199 5.87853 17.3123 5.70903C18.0867 5.14902 18.7549 4.45537 19.2857 3.66068C18.5645 3.98154 17.7988 4.1911 17.0147 4.28219C17.8403 3.78733 18.4585 3.00992 18.7546 2.09409C17.9779 2.55437 17.1286 2.87905 16.2429 3.05423C15.6462 2.42017 14.8572 2.00035 13.998 1.85968C13.1387 1.719 12.257 1.8653 11.4893 2.27596C10.7215 2.68662 10.1104 3.33877 9.75041 4.13158C9.39045 4.92439 9.30168 5.8137 9.49784 6.66202C7.92522 6.5831 6.38673 6.17457 4.98213 5.46293C3.57752 4.75128 2.33815 3.7524 1.34435 2.53103C0.83925 3.40188 0.684688 4.43238 0.912078 5.4131C1.13947 6.39382 1.73175 7.25115 2.56854 7.81087C1.94033 7.79093 1.32587 7.62179 0.775949 7.31743V7.3664C0.775386 8.28029 1.09133 9.16618 1.67007 9.87347C2.24881 10.5808 3.05463 11.0658 3.95056 11.2461C3.36862 11.4054 2.75784 11.4286 2.1655 11.3139C2.41831 12.0999 2.91019 12.7873 3.57249 13.2803C4.2348 13.7732 5.03447 14.0471 5.85992 14.0637C4.45856 15.1645 2.72746 15.7615 0.945452 15.7587C0.629427 15.7582 0.313713 15.7388 0 15.7007C1.81033 16.8621 3.91623 17.479 6.06709 17.4778Z" fill="#365B49"/>
</g>
<defs>
<clipPath id="clip0_2034_1786">
<rect width="19.2857" height="19.2857" fill="white"/>
</clipPath>
</defs>
</svg>
