<svg width="47" height="47" viewBox="0 0 47 47" fill="none" xmlns="http://www.w3.org/2000/svg">
<circle cx="23.5" cy="23.5" r="23" stroke="#365B49"/>
<g clip-path="url(#clip0_2032_670)">
<path d="M14.0215 12.0449H32.9785C34.0932 12.0449 35 12.9518 35 14.0664V32.9336C35 34.0482 34.0932 34.9551 32.9785 34.9551H14.0215C12.9068 34.9551 12 34.0482 12 32.9336V14.0664C12 12.9518 12.9068 12.0449 14.0215 12.0449ZM32.9785 13.3926H14.0215C13.6499 13.3926 13.3477 13.6949 13.3477 14.0664V17.4355H33.6523V14.0664C33.6523 13.6949 33.3501 13.3926 32.9785 13.3926ZM14.0215 33.6074H32.9785C33.3501 33.6074 33.6523 33.3051 33.6523 32.9336V18.7832H13.3477V32.9336C13.3477 33.3051 13.6499 33.6074 14.0215 33.6074Z" fill="#365B49"/>
<path d="M21.2131 20.8593C21.5551 20.7128 21.9513 20.8712 22.0979 21.2132L26.1408 30.6468C26.2875 30.9889 26.129 31.385 25.7869 31.5316C25.4448 31.6782 25.0487 31.5197 24.9022 31.1777L20.8592 21.7441C20.7126 21.402 20.871 21.0059 21.2131 20.8593Z" fill="#8CD498"/>
<path d="M27.0168 23.0791C27.2493 22.7885 27.6734 22.7414 27.9639 22.9739L31.333 25.6692C31.6699 25.9386 31.6701 26.4519 31.333 26.7215L27.9639 29.4168C27.6733 29.6493 27.2492 29.6022 27.0168 29.3116C26.7843 29.021 26.8314 28.597 27.1221 28.3645L29.8335 26.1953L27.1221 24.0262C26.8314 23.7937 26.7843 23.3697 27.0168 23.0791Z" fill="#8CD498"/>
<path d="M15.667 25.6692L19.0361 22.9739C19.3267 22.7414 19.7508 22.7885 19.9832 23.0791C20.2157 23.3697 20.1686 23.7938 19.878 24.0262L17.1666 26.1954L19.878 28.3645C20.1686 28.597 20.2157 29.021 19.9832 29.3116C19.7504 29.6025 19.3263 29.649 19.0361 29.4168L15.667 26.7215C15.3301 26.4521 15.3299 25.9388 15.667 25.6692Z" fill="#8CD498"/>
<path d="M31.5859 16.0879C31.2138 16.0879 30.9121 15.7862 30.9121 15.4141C30.9121 15.0419 31.2138 14.7402 31.5859 14.7402C31.9581 14.7402 32.2598 15.0419 32.2598 15.4141C32.2598 15.7862 31.9581 16.0879 31.5859 16.0879Z" fill="#365B49"/>
<path d="M28.8906 16.0879C28.5185 16.0879 28.2168 15.7862 28.2168 15.4141C28.2168 15.0419 28.5185 14.7402 28.8906 14.7402C29.2628 14.7402 29.5645 15.0419 29.5645 15.4141C29.5645 15.7862 29.2628 16.0879 28.8906 16.0879Z" fill="#365B49"/>
<path d="M26.1953 16.0879C25.8232 16.0879 25.5215 15.7862 25.5215 15.4141C25.5215 15.0419 25.8232 14.7402 26.1953 14.7402C26.5675 14.7402 26.8691 15.0419 26.8691 15.4141C26.8691 15.7862 26.5675 16.0879 26.1953 16.0879Z" fill="#365B49"/>
<path d="M19.457 16.0879H15.4141C15.0419 16.0879 14.7402 15.7862 14.7402 15.4141C14.7402 15.0419 15.0419 14.7402 15.4141 14.7402H19.457C19.8292 14.7402 20.1309 15.0419 20.1309 15.4141C20.1309 15.7862 19.8292 16.0879 19.457 16.0879Z" fill="#365B49"/>
</g>
<defs>
<clipPath id="clip0_2032_670">
<rect width="23" height="23" fill="white" transform="matrix(-1 0 0 1 35 12)"/>
</clipPath>
</defs>
</svg>
